<svg version="1" xmlns="http://www.w3.org/2000/svg" width="1349.333" height="1349.333" viewBox="0 0 1012.000000 1012.000000"><path d="M702.7 10.6c-.1.1-9.6.4-21.2.8-11.5.3-23.2.7-26 1-2.7.2-9.5.7-14.9 1.1-5.5.4-10.9.9-11.9 1.1-1.1.2-5.2.6-9 .9-3.9.3-7.3.7-7.6.9-.3.2-3.1.7-6.2 1-3.1.4-6.7.9-8 1.1-1.3.3-4 .8-5.9 1.1-1.9.3-6.6 1.2-10.5 2-3.8.7-8.2 1.6-9.6 1.8-5.8.9-34.3 8.8-43.7 12.1-46.3 16.1-80.1 39.2-102.6 70-13.4 18.3-24.6 44.9-27.2 64-.3 2.7-.8 5.2-.9 5.6-1 1.5-2 17.3-2 30.9.1 17 .7 24.9 3.1 39 1.2 7.1 1.5 8.6 3 15 .9 3.6 1.7 7.3 1.9 8.3 1.7 8.1 11 34.8 14.3 41.4l1.8 3.5 10.5-5.5c5.8-3 12.3-6.5 14.5-7.9 2.1-1.3 4.6-2.7 5.4-3.1.8-.3 7.8-4.5 15.5-9.4l14-8.8-.4-10c-1-23.3-.3-38.8 2.4-52.5.3-1.4.7-3.4.9-4.5 1.3-6.2 6.4-20.2 10.2-27.9 10.5-21.1 26.3-37.4 47.5-49 6.1-3.4 20.9-9.3 25.2-10.2 1-.2 2.8-.6 4-.9 1.2-.4-.7 1-4.3 3-20.4 11.5-35.5 26.5-44.8 44.5-7.7 14.8-13 32.7-14.9 50.9-1.4 13.1-.6 42.6 1.3 47.5.6 1.5 1.6 1.7 7.3 1.1 17.4-1.6 34.9-5 48.3-9.5 10.5-3.5 10.2-3.4 21.9-8.8 30.3-14.1 57.3-38.1 77.6-69 6.5-9.9 19.9-35.7 23.2-44.7 7.5-20.1 12.1-34.4 13.6-41.5.2-.8.8-3.5 1.5-6 1.8-6.6 5.1-23.3 6.6-33 .3-1.9.7-4.5.9-5.8.2-1.3.7-5.3 1-9 .3-3.7.8-7.6 1-8.7.9-4.8 1.6-23.5.9-23.6-2.5-.2-7.6-.4-7.7-.3zM268.5 124.8c-59.4 55.5-98.4 111.5-112.4 161.4-5 18-6.4 29.8-5.8 49.8.8 24.8 4 38 14.7 59.5 8.5 17 17.2 28.8 33.5 45 14.4 14.4 26.4 24.1 42.1 34 9.3 5.8 29.5 16.5 31.2 16.5 1.9 0 10.4-23.7 18.1-50.1l3.1-10.7-11.3-11.4c-38.7-39.3-50.3-81.6-34.1-124.7 2.5-6.5 9.3-19.6 9.9-18.9.2.2-.8 4.1-2.2 8.8-3.1 10.6-4.2 29.1-2.3 40.8 4.1 25.6 17.2 49.3 40.3 72.7l12.9 13 6.4-7c26.1-28.2 41.7-59.4 46.9-94 1.9-13 1.9-38.7 0-52.4-5.7-39.2-23.4-82.2-50.3-121.6-9.9-14.6-20-27.5-21.5-27.5-.7 0-9.3 7.6-19.2 16.8zm447.8 72.4c-14.5 16.6-37 38.2-54.8 52.7-33.1 26.9-67.8 46-98.5 54.1-6 1.6-7.1 1.8-9.9 1.9-1.3.1-2.2.3-1.9.6.2.3 7.4.7 15.9 1 8.5.3 17 .7 18.9.9 1.9.3 6.7.8 10.5 1.1 8.7.8 30.5 4.5 40 6.8C689 329 730.1 351 763 384c28.4 28.3 48.3 61.1 62.1 101.9 2.8 8.2 6.7 21.4 7.4 24.9.1.9.8 3.5 1.3 5.7 1.6 5.8 3.6 16 4.7 23 .3 1.6.7 4.1 1 5.4.4 2.3 1.8 12.2 2.9 22.1.3 2.5.8 8.3 1.2 13 .3 4.6.7 8.7.9 9 .7 1.2 1.8 25.1 1.8 41.5.1 15.4-.8 36.2-1.8 44-.2 1.6-.6 5-.9 7.5-.4 2.5-.8 6.7-1.1 9.5-.3 2.7-.8 6.1-1.1 7.5-.3 1.3-.7 3.8-1 5.5-.4 3.1-.6 4.3-2.4 13-.6 2.7-1.2 5.9-1.4 7-2.3 11.5-13.8 49.4-16.5 54.2-.6 1-2.2 4.7-3.7 8.3-11.7 28.8-31.7 59.3-54.2 82.5-12.3 12.7-20.8 20-37.7 32.3-19.3 14.1-49.8 28.8-79 38.2-10 3.2-34.7 9.4-41.9 10.6-2.1.3-4.8.8-6 1-4.2.8-14.2 2.3-20.1 3-3.3.3-6.9.8-7.9 1-1 .2-5.5.6-10 .9-4.5.3-10.6.8-13.6 1-3 .3-9.3.5-14 .6-6.9.1-7.8.3-5 1 10.7 2.5 62.5 2.8 81.5.4 1.7-.2 6.2-.6 10-1 3.9-.4 7.2-.9 7.5-1 .3-.2 3.4-.6 7-1 3.6-.3 8.1-1 10-1.5 1.9-.5 5.5-1.2 8-1.5 2.5-.3 6.1-1 8-1.5 1.9-.5 4.6-1.1 6-1.3 1.4-.3 4.5-1 7-1.7s5.2-1.4 6-1.5c15.7-3.6 46.9-15 66-24.3C845.7 873.7 908.1 780.9 928.9 648c1.1-6.9 2.2-14.8 2.6-17.5.3-2.8.8-6.6 1-8.5.3-1.9.7-6.2 1-9.5.3-3.3.8-9.8 1.2-14.5 1.1-11.3 1-63.1 0-74.7-.8-9-1.1-11.1-2.3-18.3-.3-1.9-.8-5.1-1-7-.4-3.1-1.1-7.1-3-17.5-6.7-36.6-20.8-79.2-37.9-114-30.6-62.5-72.3-112.7-129.2-155.8-10.3-7.8-34-23.7-35.4-23.7-.3 0-4.7 4.6-9.6 10.2zM531.5 308l-6 .7 6.3.1c3.6.1 6.2-.2 6.2-.8 0-.6-.1-.9-.2-.8-.2.1-3 .4-6.3.8zm-8 1c-.3.5-.1 1 .4 1 .6 0 1.1-.5 1.1-1 0-.6-.2-1-.4-1-.3 0-.8.4-1.1 1zM83.9 455.9c-.1.6-.2 1.4-.3 1.8-.1.5-.6 3.9-1 7.8-.5 3.8-1 7.8-1.2 8.8-.2 1-.6 5.5-1 10-.3 4.5-.8 8.9-.9 9.8-.8 4-1.8 29.7-1.7 43.4 0 23.2 1.4 40.8 4.6 60 8.3 49.5 28.6 86.4 60.1 109 12.2 8.8 33.4 18.5 45.5 20.9 1.4.3 6 1.2 10.3 2 19.6 3.9 50.6 3.9 70.7 0 1.4-.2 3.9-.7 5.5-1 1.7-.3 3.5-.7 4-.8 15.6-3.6 16.5-3.9 16.5-5.5 0-3.2-7.8-23-17.9-45.4l-3-6.7-5.8-.1c-24.1-.3-49.2-7.4-67.8-19.2-19.6-12.4-35.3-35.7-39.5-58.5-.6-3.4-1.3-7.4-1.6-8.9-.7-4 0-2.8 3.5 5.8 11.4 27.5 35.9 46.8 69.2 54.8 4.6 1.1 10.7 2.3 13.4 2.6 2.8.3 6.4.8 8.2 1.1 5.3.6 16 .7 17.1 0 1.2-.7 1.3-25.1.2-34.1-1.5-11.7-2.1-15.1-4.5-24.1-8.6-32.1-29.1-61.5-57.5-82.8-3-2.2-5.7-4.4-6-4.7-.7-.8-13.7-9.1-19-12.2-21.9-12.4-51.4-23.9-78.9-30.6-15.5-3.8-21.1-4.7-21.2-3.2zm147.8 295.7c-.1.1-3.9.5-8.5.8-23.3 1.9-51.4 9.6-75 20.7l-10.3 4.8 3.2 5.8c10.8 19.4 27.7 44.7 40.3 60.3 13.4 16.6 37.2 38.6 50.6 46.7 4 2.5 17.8 9.4 23.1 11.7 15 6.4 43.2 8.2 59.9 3.8 14.5-3.8 28.6-10.3 41.5-19.1 11.8-8.1 30.2-25.3 38.4-36l2.5-3.3-2.9-2.4c-2.8-2.2-17.1-10.9-29.1-17.7l-6.1-3.4-6.9 4.4c-7.2 4.6-19.5 11.2-22.3 11.8-.9.3-3.6 1.2-6.1 2-12.1 4.4-30.4 5.3-42.5 2-12-3.2-26.8-11.7-34-19.5l-3-3.3 4.5 2.7c12.2 7.4 21.5 10 35.5 10.1 17.2 0 23.7-1.5 40.9-9.6 3.8-1.8 10.2-5.4 14.3-8.1l7.3-5-5.2-7.6c-2.9-4.2-9.6-12-14.8-17.2-23.4-23.5-51.3-34.7-87.8-35.4h-7.5zM405 897.5c-24.5 4.8-46.5 18.6-69.5 43.6-4.5 4.9-16.5 20.7-16.5 21.7.1 1.3 26.7 15.7 38 20.6 3.6 1.5 8.3 3.6 10.5 4.6 7 3.1 24.6 8.3 35.9 10.6 11.5 2.3 28.1 2.3 39.2 0 22.8-4.7 42.2-20.4 53.8-43.5 5.7-11.3 10.8-26.6 12.2-36.6.4-2.2.7-4.4.8-4.9.2-1.6-5.8-2.3-19.4-2.2l-13.3.1-3.5 6.5c-12.3 23.1-29.7 35.7-50.2 36.5-7.8.2-23.1-2-16-2.4 13.5-.8 20.8-3 29.7-8.8 9.5-6.3 21.2-20.5 25.8-31.7l1.5-3.6-4.8-2.4c-5.6-2.8-15.3-6.2-20.2-7.1-1.8-.3-3.7-.8-4.2-1.1-1.9-1.2-23.6-1.1-29.8.1z"/></svg>