<?xml version="1.0" standalone="no"?>
<!DOCTYPE svg PUBLIC "-//W3C//DTD SVG 20010904//EN"
 "http://www.w3.org/TR/2001/REC-SVG-20010904/DTD/svg10.dtd">
<svg version="1.0" xmlns="http://www.w3.org/2000/svg"
 width="1012.000000pt" height="1012.000000pt" viewBox="0 0 1012.000000 1012.000000"
 preserveAspectRatio="xMidYMid meet">
<metadata>
Created by potrace 1.11, written by Peter Selinger 2001-2013
</metadata>
<g transform="translate(0.000000,1012.000000) scale(0.100000,-0.100000)"
fill="#000000" stroke="none">
<path d="M7027 10014 c-1 -1 -96 -4 -212 -8 -115 -3 -232 -7 -260 -10 -27 -2
-95 -7 -149 -11 -55 -4 -109 -9 -119 -11 -11 -2 -52 -6 -90 -9 -39 -3 -73 -7
-76 -9 -3 -2 -31 -7 -62 -10 -31 -4 -67 -9 -80 -11 -13 -3 -40 -8 -59 -11 -19
-3 -66 -12 -105 -20 -38 -7 -82 -16 -96 -18 -58 -9 -343 -88 -437 -121 -463
-161 -801 -392 -1026 -700 -134 -183 -246 -449 -272 -640 -3 -27 -8 -52 -9
-56 -10 -15 -20 -173 -20 -309 1 -170 7 -249 31 -390 12 -71 15 -86 30 -150 9
-36 17 -73 19 -83 17 -81 110 -348 143 -414 l18 -35 105 55 c58 30 123 65 145
79 21 13 46 27 54 31 8 3 78 45 155 94 l140 88 -4 100 c-10 233 -3 388 24 525
3 14 7 34 9 45 13 62 64 202 102 279 105 211 263 374 475 490 61 34 209 93
252 102 10 2 28 6 40 9 12 4 -7 -10 -43 -30 -204 -115 -355 -265 -448 -445
-77 -148 -130 -327 -149 -509 -14 -131 -6 -426 13 -475 6 -15 16 -17 73 -11
174 16 349 50 483 95 105 35 102 34 219 88 303 141 573 381 776 690 65 99 199
357 232 447 75 201 121 344 136 415 2 8 8 35 15 60 18 66 51 233 66 330 3 19
7 45 9 58 2 13 7 53 10 90 3 37 8 76 10 87 9 48 16 235 9 236 -25 2 -76 4 -77
3z"/>
<path d="M2685 8872 c-594 -555 -984 -1115 -1124 -1614 -50 -180 -64 -298 -58
-498 8 -248 40 -380 147 -595 85 -170 172 -288 335 -450 144 -144 264 -241
421 -340 93 -58 295 -165 312 -165 19 0 104 237 181 501 l31 107 -113 114
c-387 393 -503 816 -341 1247 25 65 93 196 99 189 2 -2 -8 -41 -22 -88 -31
-106 -42 -291 -23 -408 41 -256 172 -493 403 -727 l129 -130 64 70 c261 282
417 594 469 940 19 130 19 387 0 524 -57 392 -234 822 -503 1216 -99 146 -200
275 -215 275 -7 0 -93 -76 -192 -168z"/>
<path d="M7163 8148 c-145 -166 -370 -382 -548 -527 -331 -269 -678 -460 -985
-541 -60 -16 -71 -18 -99 -19 -13 -1 -22 -3 -19 -6 2 -3 74 -7 159 -10 85 -3
170 -7 189 -9 19 -3 67 -8 105 -11 87 -8 305 -45 400 -68 525 -127 936 -347
1265 -677 284 -283 483 -611 621 -1019 28 -82 67 -214 74 -249 1 -9 8 -35 13
-57 16 -58 36 -160 47 -230 3 -16 7 -41 10 -54 4 -23 18 -122 29 -221 3 -25 8
-83 12 -130 3 -46 7 -87 9 -90 7 -12 18 -251 18 -415 1 -154 -8 -362 -18 -440
-2 -16 -6 -50 -9 -75 -4 -25 -8 -67 -11 -95 -3 -27 -8 -61 -11 -75 -3 -13 -7
-38 -10 -55 -4 -31 -6 -43 -24 -130 -6 -27 -12 -59 -14 -70 -23 -115 -138
-494 -165 -542 -6 -10 -22 -47 -37 -83 -117 -288 -317 -593 -542 -825 -123
-127 -208 -200 -377 -323 -193 -141 -498 -288 -790 -382 -100 -32 -347 -94
-419 -106 -21 -3 -48 -8 -60 -10 -42 -8 -142 -23 -201 -30 -33 -3 -69 -8 -79
-10 -10 -2 -55 -6 -100 -9 -45 -3 -106 -8 -136 -10 -30 -3 -93 -5 -140 -6 -69
-1 -78 -3 -50 -10 107 -25 625 -28 815 -4 17 2 62 6 100 10 39 4 72 9 75 10 3
2 34 6 70 10 36 3 81 10 100 15 19 5 55 12 80 15 25 3 61 10 80 15 19 5 46 11
60 13 14 3 45 10 70 17 25 7 52 14 60 15 157 36 469 150 660 243 1017 495
1641 1423 1849 2752 11 69 22 148 26 175 3 28 8 66 10 85 3 19 7 62 10 95 3
33 8 98 12 145 11 113 10 631 0 747 -8 90 -11 111 -23 183 -3 19 -8 51 -10 70
-4 31 -11 71 -30 175 -67 366 -208 792 -379 1140 -306 625 -723 1127 -1292
1558 -103 78 -340 237 -354 237 -3 0 -47 -46 -96 -102z"/>
<path d="M5315 7040 l-60 -7 63 -1 c36 -1 62 2 62 8 0 6 -1 9 -2 8 -2 -1 -30
-4 -63 -8z"/>
<path d="M5235 7030 c-3 -5 -1 -10 4 -10 6 0 11 5 11 10 0 6 -2 10 -4 10 -3 0
-8 -4 -11 -10z"/>
<path d="M839 5561 c-1 -6 -2 -14 -3 -18 -1 -5 -6 -39 -10 -78 -5 -38 -10 -78
-12 -88 -2 -10 -6 -55 -10 -100 -3 -45 -8 -89 -9 -98 -8 -40 -18 -297 -17
-434 0 -232 14 -408 46 -600 83 -495 286 -864 601 -1090 122 -88 334 -185 455
-209 14 -3 60 -12 103 -20 196 -39 506 -39 707 0 14 2 39 7 55 10 17 3 35 7
40 8 156 36 165 39 165 55 0 32 -78 230 -179 454 l-30 67 -58 1 c-241 3 -492
74 -678 192 -196 124 -353 357 -395 585 -6 34 -13 74 -16 89 -7 40 0 28 35
-58 114 -275 359 -468 692 -548 46 -11 107 -23 134 -26 28 -3 64 -8 82 -11 53
-6 160 -7 171 0 12 7 13 251 2 341 -15 117 -21 151 -45 241 -86 321 -291 615
-575 828 -30 22 -57 44 -60 47 -7 8 -137 91 -190 122 -219 124 -514 239 -789
306 -155 38 -211 47 -212 32z"/>
<path d="M2317 2604 c-1 -1 -39 -5 -85 -8 -233 -19 -514 -96 -750 -207 l-103
-48 32 -58 c108 -194 277 -447 403 -603 134 -166 372 -386 506 -467 40 -25
178 -94 231 -117 150 -64 432 -82 599 -38 145 38 286 103 415 191 118 81 302
253 384 360 l25 33 -29 24 c-28 22 -171 109 -291 177 l-61 34 -69 -44 c-72
-46 -195 -112 -223 -118 -9 -3 -36 -12 -61 -20 -121 -44 -304 -53 -425 -20
-120 32 -268 117 -340 195 l-30 33 45 -27 c122 -74 215 -100 355 -101 172 0
237 15 409 96 38 18 102 54 143 81 l73 50 -52 76 c-29 42 -96 120 -148 172
-234 235 -513 347 -878 354 -41 0 -74 0 -75 0z"/>
<path d="M4050 1145 c-245 -48 -465 -186 -695 -436 -45 -49 -165 -207 -165
-217 1 -13 267 -157 380 -206 36 -15 83 -36 105 -46 70 -31 246 -83 359 -106
115 -23 281 -23 392 0 228 47 422 204 538 435 57 113 108 266 122 366 4 22 7
44 8 49 2 16 -58 23 -194 22 l-133 -1 -35 -65 c-123 -231 -297 -357 -502 -365
-78 -2 -231 20 -160 24 135 8 208 30 297 88 95 63 212 205 258 317 l15 36 -48
24 c-56 28 -153 62 -202 71 -18 3 -37 8 -42 11 -19 12 -236 11 -298 -1z"/>
</g>
</svg>
